<?xml version="1.0" encoding="iso-8859-1"?>
<!-- Generator: Adobe Illustrator 19.0.0, SVG Export Plug-In . SVG Version: 6.00 Build 0)  -->
<svg version="1.1" id="Layer_1" xmlns="http://www.w3.org/2000/svg" xmlns:xlink="http://www.w3.org/1999/xlink" x="0px" y="0px"
	 viewBox="0 0 502 502" style="enable-background:new 0 0 502 502;" xml:space="preserve">
<g>
	<g>
		<g>
			<path d="M497,0H5C2.239,0,0,2.239,0,5v492c0,2.761,2.239,5,5,5h492c2.761,0,5-2.239,5-5V5C502,2.239,499.761,0,497,0z M492,492
				H10V10h482V492z"/>
			<path d="M51,51h327.007c2.762,0,5-2.239,5-5s-2.239-5-5-5H51c-2.761,0-5,2.239-5,5S48.239,51,51,51z"/>
			<path d="M425.682,51H455c2.761,0,5-2.239,5-5s-2.239-5-5-5h-29.318c-2.761,0-5,2.239-5,5S422.921,51,425.682,51z"/>
			<path d="M231.64,240.466c-2.761,0-5,2.239-5,5c0,45.116-36.704,81.82-81.82,81.82c-45.116,0-81.82-36.704-81.82-81.82
				s36.704-81.82,81.82-81.82c2.761,0,5-2.239,5-5s-2.239-5-5-5c-50.63,0-91.82,41.19-91.82,91.82s41.191,91.82,91.82,91.82
				c50.629,0,91.82-41.191,91.82-91.82C236.64,242.705,234.401,240.466,231.64,240.466z"/>
			<path d="M275.78,256.53c0-45.116,36.704-81.82,81.82-81.82c2.761,0,5-2.239,5-5c0-2.761-2.239-5-5-5
				c-50.63,0-91.82,41.19-91.82,91.82s41.191,91.82,91.82,91.82c50.629,0,91.819-41.19,91.82-91.82c0-2.761-2.239-5-5-5
				s-5,2.239-5,5c0,45.116-36.704,81.82-81.82,81.82C312.484,338.35,275.78,301.646,275.78,256.53z"/>
		</g>
	</g>
</g>
<g>
</g>
<g>
</g>
<g>
</g>
<g>
</g>
<g>
</g>
<g>
</g>
<g>
</g>
<g>
</g>
<g>
</g>
<g>
</g>
<g>
</g>
<g>
</g>
<g>
</g>
<g>
</g>
<g>
</g>
</svg>
